# xmcd
#
# Track frame offsets:
#	150
#	12809
#	27359
#	41407
#	56931
#	70680
#	86260
#	99247
#	111545
#	125802
#	140616
#	154115
#
# Disc length: 2257 seconds
#
# Revision: 0
# Processed by: cddbd v1.5.2PL0 Copyright (c) Steve Scherf et al.
# Submitted via: EZCDAudioConverter 2.1.5.1
#
DISCID=9f08cf0c
DTITLE=Elisa's - Det Sa Klick!
DYEAR=2012
DGENRE=Swedish Dansband 10s
TTITLE0=Jag Säger Som Det Är
TTITLE1=When You Walk In The Room
TTITLE2=Ikväll Tar Jag Chansen
TTITLE3=Jag Tror På Kärleken
TTITLE4=Ingen Kan Älska Mig Som Du
TTITLE5=Är Det På Riktigt Eller Drömmer Jag
TTITLE6=Det Sa Klick!
TTITLE7=Breaking Up Is Hard To Do
TTITLE8=Rosegarden
TTITLE9=I Min Ensamhet
TTITLE10=Linjen I Min Hand
TTITLE11=När Dina Läppar Möter Mina
EXTD=
EXTT0=
EXTT1=
EXTT2=
EXTT3=
EXTT4=
EXTT5=
EXTT6=
EXTT7=
EXTT8=
EXTT9=
EXTT10=
EXTT11=
PLAYORDER=
